<svg width="90" height="90" viewBox="0 0 90 90" fill="none" xmlns="http://www.w3.org/2000/svg">
<g clip-path="url(#clip0)">
<path d="M7.25808 8.70968H50.8065V18.871C50.8065 19.674 51.455 20.3226 52.2581 20.3226H62.4194V31.9355H65.3226V18.871C65.3226 18.4691 65.1589 18.1062 64.8959 17.8432L53.2873 6.23456C53.0229 5.97018 52.66 5.80645 52.2581 5.80645H13.0645V2.90323H68.2258V34.8387H71.1291V1.45161C71.1291 0.648548 70.4805 0 69.6774 0H11.6129C10.8099 0 10.1613 0.648548 10.1613 1.45161V5.80645H5.80647C5.00341 5.80645 4.35486 6.455 4.35486 7.25806V88.5484C4.35486 89.3515 5.00341 90 5.80647 90H55.1613V87.0968H7.25808V8.70968ZM53.7097 10.7623L60.3667 17.4194H53.7097V10.7623Z" fill="white"/>
<path d="M84.1936 43.5484H82.0076C75.5257 43.5484 69.4294 40.6934 65.2808 35.7155L64.9873 35.3626C64.4373 34.6991 63.3061 34.6991 62.7561 35.3626L62.4626 35.7141C58.3126 40.6934 52.2163 43.5484 45.7343 43.5484H43.5484C42.7453 43.5484 42.0968 44.197 42.0968 45.0001V68.5101C42.0968 74.2265 45.1801 79.5397 50.143 82.3748L63.1509 89.8087C63.3734 89.9363 63.6229 90.0001 63.871 90.0001C64.1191 90.0001 64.3686 89.9363 64.5911 89.8087L77.5989 82.3748C82.5619 79.5397 85.6452 74.2265 85.6452 68.5101V45.0001C85.6452 44.197 84.9966 43.5484 84.1936 43.5484ZM82.742 68.5101C82.742 73.1874 80.2208 77.5338 76.1587 79.8529L63.871 86.8778L51.5833 79.8551C47.5212 77.5338 45 73.1874 45 68.5101V46.4517H45.7343C52.6614 46.4517 59.2029 43.5733 63.871 38.5096C68.5377 43.5733 75.0806 46.4517 82.0076 46.4517H82.742V68.5101Z" fill="white"/>
<path d="M63.8709 47.9032C55.067 47.9032 47.9032 55.067 47.9032 63.8709C47.9032 72.6749 55.067 79.8387 63.8709 79.8387C72.6749 79.8387 79.8387 72.6749 79.8387 63.8709C79.8387 55.067 72.6749 47.9032 63.8709 47.9032ZM63.8709 76.9355C56.6667 76.9355 50.8064 71.0751 50.8064 63.8709C50.8064 56.6667 56.6667 50.8064 63.8709 50.8064C71.0751 50.8064 76.9355 56.6667 76.9355 63.8709C76.9355 71.0751 71.0751 76.9355 63.8709 76.9355Z" fill="white"/>
<path d="M63.1784 68.3839L60.5424 65.7479L58.4897 67.8006L62.8446 72.1554C63.1189 72.4311 63.4903 72.5807 63.8709 72.5807C63.9886 72.5807 64.1077 72.5665 64.2253 72.5374C64.7215 72.412 65.1134 72.0349 65.2616 71.5458L69.6164 57.0297L66.8351 56.1962L63.1784 68.3839Z" fill="white"/>
<path d="M10.1613 23.2258H47.9032V26.1291H10.1613V23.2258Z" fill="white"/>
<path d="M10.1613 29.0322H47.9032V31.9355H10.1613V29.0322Z" fill="white"/>
<path d="M10.1613 34.8387H47.9032V37.742H10.1613V34.8387Z" fill="white"/>
<path d="M10.1613 40.6451H39.1935V43.5484H10.1613V40.6451Z" fill="white"/>
<path d="M10.1613 46.4517H39.1935V49.3549H10.1613V46.4517Z" fill="white"/>
<path d="M10.1613 52.2581H39.1935V55.1613H10.1613V52.2581Z" fill="white"/>
<path d="M10.1613 69.6775H39.1935V72.5807H10.1613V69.6775Z" fill="white"/>
<path d="M10.1613 75.4839H39.1935V78.3871H10.1613V75.4839Z" fill="white"/>
<path d="M10.1613 81.2903H39.1935V84.1935H10.1613V81.2903Z" fill="white"/>
<path d="M11.6129 11.6129H14.5161V14.5161H11.6129V11.6129Z" fill="white"/>
<path d="M17.4193 11.6129H20.3225V14.5161H17.4193V11.6129Z" fill="white"/>
<path d="M23.2258 11.6129H26.1291V14.5161H23.2258V11.6129Z" fill="white"/>
<path d="M29.0323 11.6129H47.9033V14.5161H29.0323V11.6129Z" fill="white"/>
</g>
<defs>
<clipPath id="clip0">
<rect width="90" height="90" fill="white"/>
</clipPath>
</defs>
</svg>
