<svg width="90" height="90" viewBox="0 0 90 90" fill="none" xmlns="http://www.w3.org/2000/svg">
<g clip-path="url(#clip0)">
<path d="M83.901 42.6673L80.322 41.1282V38.681C80.3723 23.6611 70.8953 10.2601 56.7168 5.30348V1.85455C56.7168 0.830809 55.886 0 54.8629 0H35.0215C33.9984 0 33.1676 0.830809 33.1676 1.85455V5.32171C18.9892 10.2783 9.51215 23.6793 9.56243 38.6993V41.1653L6.02049 42.6673C5.33422 42.957 4.88928 43.6301 4.88928 44.3735V54.1088C4.88928 55.1319 5.72009 55.9627 6.74384 55.9627H9.15456V59.6719C9.15456 60.695 9.98475 61.5258 11.0085 61.5258H17.6656C18.2979 63.8473 19.2267 66.0801 20.4283 68.1641L15.7187 72.8743C14.9991 73.597 14.9991 74.7653 15.7187 75.4887L23.5995 83.3694C24.3222 84.089 25.4905 84.089 26.2138 83.3694L30.9234 78.6598C33.0023 79.8614 35.2277 80.7884 37.5435 81.4225V88.0796C37.5435 89.1027 38.3743 89.9336 39.398 89.9336H50.5235C51.5472 89.9336 52.378 89.1027 52.378 88.0796V81.4225C54.6995 80.7903 56.9318 79.8633 59.0163 78.6598L63.7266 83.3694C64.4493 84.089 65.6176 84.089 66.3409 83.3694L74.2216 75.4887C74.9412 74.7653 74.9412 73.597 74.2216 72.8743L69.5114 68.1641C70.713 66.0801 71.6425 63.8473 72.2747 61.5258H78.9312C79.955 61.5258 80.7858 60.695 80.7858 59.6719V55.9627H83.1965C84.2203 55.9627 85.0505 55.1319 85.0505 54.1088V44.3735C85.0467 43.6244 84.5929 42.9513 83.901 42.6673ZM36.839 3.72733H53.0084V34.7124H36.8761L36.839 3.72733ZM77.0956 57.8173H70.921C70.0312 57.7966 69.2538 58.4124 69.0665 59.2816C68.4418 62.1856 67.2924 64.9502 65.6735 67.4407C65.1965 68.1735 65.2989 69.1394 65.9142 69.7585L70.346 74.1903L65.0425 79.4567L60.6107 75.0249C59.9917 74.4096 59.0258 74.3072 58.293 74.7842C55.8024 76.4024 53.0379 77.5525 50.1338 78.1772C49.2641 78.3644 48.6488 79.1418 48.6689 80.0317V86.2804H41.252V79.9758C41.2727 79.0859 40.6568 78.3091 39.787 78.1219C36.8836 77.4984 34.1184 76.349 31.6285 74.7282C30.8958 74.2519 29.9298 74.3537 29.3102 74.9696L24.8784 79.4014L19.6308 74.1532L24.0626 69.7214C24.6785 69.1024 24.7803 68.1364 24.304 67.4037C22.67 64.9282 21.5017 62.1762 20.855 59.2816C20.6671 58.4124 19.8904 57.7966 19.0005 57.8173H12.826V55.9627H29.774C30.7902 64.3406 38.4057 70.3077 46.7836 69.2896C53.7631 68.4425 59.2646 62.9423 60.1105 55.9627H77.0773L77.0956 57.8173ZM33.5566 55.9627H56.3831C55.3632 62.2711 49.4218 66.5584 43.1141 65.5384C38.1927 64.7428 34.334 60.8841 33.5384 55.9627H33.5566ZM81.3608 52.2543H8.57953V45.5971L12.1579 44.058C12.8442 43.769 13.2891 43.0959 13.2891 42.3518V38.6433C13.2483 25.6929 21.1328 14.037 33.1676 9.25265V36.5669C33.1676 37.59 33.9978 38.4209 35.0215 38.4209H54.8994C55.9231 38.4209 56.7539 37.59 56.7539 36.5669V9.25265C68.8088 14.0351 76.7028 25.7136 76.6506 38.6804V42.3895C76.6506 43.133 77.0956 43.806 77.7818 44.0951L81.3602 45.6342V52.2543H81.3608Z" fill="white"/>
</g>
<defs>
<clipPath id="clip0">
<rect width="90" height="90" fill="white"/>
</clipPath>
</defs>
</svg>
