<svg width="90" height="90" viewBox="0 0 90 90" fill="none" xmlns="http://www.w3.org/2000/svg">
<path d="M88.3303 57.1345C88.3319 57.1267 88.3288 57.1174 88.3319 57.1097C89.4103 53.2536 90 49.1959 90 45C90 40.8041 89.4103 36.7464 88.3319 32.8903C88.3303 32.8826 88.3335 32.8733 88.3303 32.8655C88.3272 32.8531 88.3179 32.8453 88.3148 32.8345C87.9098 31.396 87.4366 29.9886 86.8966 28.6122V28.1017C86.8966 27.5416 86.5847 27.0745 86.1409 26.8014C85.5947 25.5724 85.0004 24.3729 84.3502 23.2045C84.6217 23.4357 84.96 23.5893 85.3448 23.5893C86.2014 23.5893 86.8966 22.8957 86.8966 22.0376V20.5216C86.8966 19.6635 86.2014 18.9698 85.3448 18.9698C84.4883 18.9698 83.7931 19.6635 83.7931 20.5216V22.0376C83.7931 22.1307 83.8303 22.2098 83.8459 22.2983C83.7357 22.1105 83.6209 21.9274 83.5076 21.7412C83.4874 21.7071 83.4672 21.6729 83.4455 21.6403C83.3385 21.465 83.236 21.2866 83.1259 21.1128C83.1103 21.0879 83.084 21.0755 83.0685 21.0522C82.0583 19.4509 80.9566 17.9131 79.7586 16.456C79.7478 16.4405 79.7447 16.4234 79.7338 16.4079C79.425 16.034 79.1116 15.6647 78.7919 15.3016C78.7686 15.2752 78.736 15.2643 78.7112 15.2395C77.4729 13.8383 76.1493 12.5162 74.7466 11.2779C74.7233 11.2547 74.714 11.2236 74.6876 11.2019C74.3245 10.8838 73.9567 10.5703 73.5843 10.2647C73.5735 10.2553 73.5595 10.2538 73.5471 10.2445C72.0869 9.04345 70.546 7.94017 68.9416 6.92845C68.9183 6.91138 68.9059 6.88655 68.8795 6.86948C68.7088 6.76241 68.5335 6.66 68.3612 6.55603C68.3286 6.53586 68.296 6.51569 68.2619 6.49552C68.0726 6.38069 67.8833 6.26276 67.6924 6.15103C67.7902 6.1681 67.8802 6.2069 67.9841 6.2069H69.5002C70.3567 6.2069 71.0519 5.51328 71.0519 4.65517C71.0519 3.79707 70.3567 3.10345 69.5002 3.10345H67.9841C67.1276 3.10345 66.4324 3.79707 66.4324 4.65517C66.4324 5.04776 66.5907 5.39535 66.8297 5.66845C65.6519 5.01207 64.44 4.41 63.2002 3.85914C62.9271 3.41534 62.4585 3.10345 61.8998 3.10345H61.3893C60.0114 2.5619 58.6024 2.08862 57.1624 1.68362C57.1531 1.68207 57.1469 1.67431 57.136 1.67121C57.1298 1.66966 57.1221 1.67121 57.1159 1.67121C53.2583 0.589655 49.1974 0 45 0C40.8026 0 36.7417 0.589655 32.8841 1.67121C32.8764 1.67276 32.8702 1.67121 32.864 1.67121C32.8547 1.67276 32.8484 1.68052 32.8376 1.68362C31.3976 2.08862 29.9886 2.5619 28.6107 3.10345H28.1002C27.54 3.10345 27.0729 3.41534 26.7998 3.85914C25.5709 4.40534 24.3714 4.99966 23.2029 5.64983C23.4341 5.37828 23.5878 5.04 23.5878 4.65517C23.5878 3.79707 22.8926 3.10345 22.036 3.10345H20.52C19.6634 3.10345 18.9683 3.79707 18.9683 4.65517C18.9683 5.51328 19.6634 6.2069 20.52 6.2069H22.036C22.1291 6.2069 22.2098 6.16966 22.2983 6.15414C22.1152 6.26121 21.9352 6.37448 21.7536 6.4831C21.7102 6.50948 21.6683 6.53431 21.6248 6.56069C21.4526 6.66621 21.2788 6.76707 21.1081 6.87259C21.0833 6.8881 21.0709 6.91293 21.0476 6.93C19.4462 7.94328 17.9069 9.045 16.4483 10.2445C16.4359 10.2538 16.4203 10.2569 16.4079 10.2662C16.034 10.5734 15.6647 10.8869 15.3016 11.2081C15.2752 11.2314 15.2659 11.2609 15.2441 11.2841C13.8414 12.524 12.5162 13.8476 11.2779 15.2503C11.2547 15.2752 11.2236 15.2845 11.2003 15.3093C10.8807 15.6724 10.5672 16.0417 10.2584 16.4157C10.2476 16.4297 10.246 16.4467 10.2352 16.4607C9.03724 17.9162 7.93707 19.4555 6.9269 21.0553C6.90983 21.0802 6.8819 21.0941 6.86638 21.1205C6.75466 21.299 6.64914 21.4805 6.54052 21.6605C6.5281 21.6776 6.51724 21.6962 6.50638 21.7148C6.3869 21.9119 6.26586 22.1074 6.14948 22.306C6.1681 22.2098 6.2069 22.1198 6.2069 22.0159V20.4998C6.2069 19.6417 5.51172 18.9481 4.65517 18.9481C3.79862 18.9481 3.10345 19.6417 3.10345 20.4998V22.0159C3.10345 22.874 3.79862 23.5676 4.65517 23.5676C5.04776 23.5676 5.39535 23.4093 5.66845 23.1703C5.01207 24.3481 4.41 25.56 3.85914 26.7998C3.41534 27.0729 3.10345 27.5416 3.10345 28.1002V28.6107C2.56345 29.9871 2.08862 31.396 1.68517 32.8329C1.68207 32.8453 1.67276 32.8531 1.66966 32.864C1.6681 32.8717 1.67121 32.881 1.6681 32.8888C0.589655 36.7464 0 40.8041 0 45C0 49.1959 0.589655 53.2536 1.6681 57.1097C1.66966 57.1174 1.66655 57.1267 1.66966 57.1345C1.67276 57.1484 1.68207 57.1593 1.68672 57.1733C2.09017 58.6086 2.56345 60.0145 3.10345 61.3893V61.8998C3.10345 62.46 3.41534 62.9271 3.85914 63.2002C4.40534 64.4291 4.99966 65.6286 5.64983 66.7971C5.37828 66.5659 5.03845 66.4122 4.65517 66.4122C3.79862 66.4122 3.10345 67.1059 3.10345 67.964V69.48C3.10345 70.3381 3.79862 71.0317 4.65517 71.0317C5.51172 71.0317 6.2069 70.3381 6.2069 69.48V67.964C6.2069 67.8724 6.16966 67.7933 6.15414 67.7048C6.26897 67.9003 6.38845 68.0928 6.50638 68.2852C6.51724 68.3038 6.5281 68.3224 6.54052 68.341C6.65224 68.5241 6.75931 68.7088 6.87259 68.8888C6.89741 68.9291 6.9331 68.9586 6.96103 68.9959C7.96345 70.5802 9.05431 72.104 10.2414 73.5471C10.2522 73.5626 10.2553 73.5797 10.2662 73.5952C10.575 73.9691 10.8884 74.3384 11.2081 74.7016C11.2298 74.7264 11.2609 74.7341 11.2841 74.7574C12.524 76.1617 13.8491 77.4854 15.2534 78.7252C15.2767 78.7485 15.286 78.7795 15.3124 78.8012C15.6755 79.1193 16.0433 79.4328 16.4157 79.7384C16.4281 79.7493 16.4452 79.7524 16.4576 79.7617C17.9162 80.9612 19.4555 82.0629 21.0584 83.0747C21.0817 83.0917 21.0941 83.1166 21.1205 83.1336C21.2912 83.2407 21.4666 83.3431 21.6388 83.4471C21.6714 83.4672 21.704 83.4874 21.7381 83.5076C21.9274 83.6224 22.1152 83.7403 22.3076 83.8521C22.2098 83.8319 22.1198 83.7931 22.0159 83.7931H20.4998C19.6433 83.7931 18.9481 84.4867 18.9481 85.3448C18.9481 86.2029 19.6433 86.8966 20.4998 86.8966H22.0159C22.8724 86.8966 23.5676 86.2029 23.5676 85.3448C23.5676 84.9538 23.4093 84.6047 23.1703 84.3316C24.3481 84.9879 25.56 85.59 26.7998 86.1409C27.0729 86.5847 27.5416 86.8966 28.1002 86.8966H28.6107C29.9886 87.4381 31.3976 87.9114 32.8376 88.3164C32.8469 88.3179 32.8531 88.3257 32.864 88.3288C32.8748 88.3319 32.8841 88.3303 32.895 88.3319C36.7495 89.4103 40.8057 90 45 90C49.1943 90 53.2505 89.4103 57.105 88.3319C57.1159 88.3303 57.1252 88.3303 57.136 88.3288C57.1453 88.3272 57.1516 88.3195 57.1624 88.3164C58.6024 87.9114 60.0114 87.4381 61.3893 86.8966H61.8998C62.46 86.8966 62.9271 86.5847 63.2002 86.1409C64.4291 85.5947 65.6302 85.0004 66.7971 84.3502C66.5659 84.6217 66.4122 84.96 66.4122 85.3448C66.4122 86.2029 67.1074 86.8966 67.964 86.8966H69.48C70.3366 86.8966 71.0317 86.2029 71.0317 85.3448C71.0317 84.4867 70.3366 83.7931 69.48 83.7931H67.964C67.8709 83.7931 67.7902 83.8303 67.7017 83.8459C67.8848 83.7388 68.0648 83.6255 68.2464 83.5169C68.2898 83.4905 68.3317 83.4657 68.3752 83.4393C68.5474 83.3338 68.7212 83.2329 68.8919 83.1274C68.9167 83.1119 68.9291 83.0871 68.9524 83.07C70.5522 82.0598 72.0916 80.9597 73.5471 79.7617C73.561 79.7509 73.5797 79.7462 73.5936 79.7353C73.9676 79.4281 74.3369 79.1147 74.7 78.7934C74.7248 78.7717 74.7341 78.7407 74.7574 78.7174C76.1617 77.476 77.4869 76.1493 78.7283 74.745C78.75 74.7233 78.7795 74.7155 78.7997 74.6922C79.1193 74.3291 79.4328 73.9598 79.7416 73.5859C79.7524 73.5719 79.754 73.5548 79.7648 73.5409C80.9519 72.0978 82.0428 70.574 83.0452 68.9897C83.0731 68.9524 83.1088 68.9229 83.1336 68.8826C83.2453 68.7041 83.3509 68.5226 83.4595 68.3426C83.4703 68.324 83.4828 68.3053 83.4936 68.2867C83.6131 68.0897 83.7341 67.8941 83.8505 67.6955C83.8319 67.7917 83.7931 67.8802 83.7931 67.9841V69.5002C83.7931 70.3583 84.4883 71.0519 85.3448 71.0519C86.2014 71.0519 86.8966 70.3583 86.8966 69.5002V67.9841C86.8966 67.126 86.2014 66.4324 85.3448 66.4324C84.9522 66.4324 84.6047 66.5907 84.3316 66.8297C84.9879 65.6519 85.59 64.44 86.1409 63.2002C86.5847 62.9271 86.8966 62.4585 86.8966 61.8998V61.3893C87.4366 60.016 87.9083 58.6102 88.3133 57.1733C88.3164 57.1593 88.3272 57.15 88.3303 57.1345ZM80.8014 66.7412C77.3131 72.464 72.4935 77.2867 66.7754 80.7797C66.7272 80.8091 66.6776 80.8386 66.6295 80.8681C63.8984 82.5207 60.961 83.866 57.87 84.8653L53.5422 67.5543C59.9866 65.1041 65.1057 59.985 67.5559 53.5407L84.8669 57.8685C83.8614 60.9734 82.5114 63.9248 80.8464 66.6683C80.8309 66.6916 80.8169 66.7164 80.8014 66.7412ZM23.3566 80.8588C23.3178 80.8355 23.279 80.8122 23.2402 80.789C17.519 77.2976 12.6947 72.4717 9.20483 66.749C9.18621 66.7195 9.16759 66.6885 9.15052 66.659C7.48862 63.9186 6.13862 60.9703 5.13466 57.8685L22.4457 53.5407C24.8943 59.985 30.015 65.1041 36.4593 67.5543L32.1316 84.8653C29.0343 83.8629 26.0922 82.516 23.3566 80.8588ZM9.19862 23.2588C12.6869 17.536 17.5066 12.7133 23.2247 9.22035C23.2728 9.19086 23.3224 9.16138 23.3705 9.1319C26.1016 7.47931 29.039 6.13397 32.13 5.13466L36.4578 22.4457C30.0135 24.8959 24.8943 30.015 22.4441 36.4593L5.1331 32.1316C6.13862 29.0266 7.48862 26.0752 9.15362 23.3317C9.16914 23.3084 9.1831 23.2836 9.19862 23.2588ZM21.5302 39.4278C21.105 41.22 20.8552 43.079 20.8552 45C20.8552 46.921 21.105 48.78 21.5302 50.5722L4.29207 54.8814C3.52086 51.7112 3.10345 48.4045 3.10345 45C3.10345 41.5955 3.52086 38.2888 4.29207 35.1186L21.5302 39.4278ZM23.9586 45C23.9586 33.3978 33.3978 23.9586 45 23.9586C56.6022 23.9586 66.0414 33.3978 66.0414 45C66.0414 56.6022 56.6022 66.0414 45 66.0414C33.3978 66.0414 23.9586 56.6022 23.9586 45ZM66.6435 9.14121C66.6822 9.16448 66.721 9.18776 66.7598 9.21103C72.4748 12.6993 77.2929 17.5159 80.7812 23.2293C80.8091 23.2759 80.8371 23.3209 80.8634 23.3659C82.5176 26.0984 83.8629 29.0374 84.8638 32.13L67.5528 36.4578C65.1041 30.0135 59.9834 24.8943 53.5391 22.4441L57.8669 5.1331C60.9657 6.13707 63.9078 7.48397 66.6435 9.14121ZM86.8966 45C86.8966 48.4045 86.4791 51.7112 85.7079 54.8814L68.4698 50.5722C68.895 48.78 69.1448 46.921 69.1448 45C69.1448 43.079 68.895 41.22 68.4698 39.4278L85.7079 35.1186C86.4791 38.2888 86.8966 41.5955 86.8966 45ZM54.8814 4.29207L50.5722 21.5317C48.78 21.105 46.921 20.8552 45 20.8552C43.079 20.8552 41.22 21.105 39.4278 21.5302L35.1186 4.29052C38.2888 3.52241 41.5955 3.10345 45 3.10345C48.4045 3.10345 51.7112 3.52241 54.8814 4.29207ZM35.1186 85.7079L39.4278 68.4683C41.22 68.8934 43.079 69.1433 45 69.1433C46.921 69.1433 48.78 68.8934 50.5722 68.4683L54.8814 85.7079C51.7112 86.4776 48.4045 86.8966 45 86.8966C41.5955 86.8966 38.2888 86.4776 35.1186 85.7079Z" fill="white"/>
<path d="M6.14167 8.75014C6.59477 8.75014 7.04632 8.55152 7.35201 8.17135C7.59874 7.86411 7.87805 7.5848 8.18063 7.34428C8.85098 6.80894 8.96115 5.8329 8.42736 5.16411C7.89201 4.49221 6.91598 4.38204 6.24563 4.91583C5.7646 5.30066 5.32236 5.7398 4.93287 6.22549C4.39598 6.89273 4.5015 7.87032 5.17029 8.40721C5.45581 8.63687 5.79874 8.75014 6.14167 8.75014Z" fill="white"/>
<path d="M4.65524 15.989C5.51179 15.989 6.20696 15.2953 6.20696 14.4372V12.9196C6.20696 12.0615 5.51179 11.3679 4.65524 11.3679C3.79869 11.3679 3.10352 12.0615 3.10352 12.9196V14.4372C3.10352 15.2938 3.79869 15.989 4.65524 15.989Z" fill="white"/>
<path d="M12.9399 6.20684H14.4559C15.3125 6.20684 16.0077 5.51322 16.0077 4.65512C16.0077 3.79701 15.3125 3.10339 14.4559 3.10339H12.9399C12.0834 3.10339 11.3882 3.79701 11.3882 4.65512C11.3882 5.51322 12.0834 6.20684 12.9399 6.20684Z" fill="white"/>
<path d="M83.7932 12.9398V14.4574C83.7932 15.3155 84.4884 16.0091 85.3449 16.0091C86.2015 16.0091 86.8967 15.3155 86.8967 14.4574V12.9398C86.8967 12.0817 86.2015 11.3881 85.3449 11.3881C84.4884 11.3881 83.7932 12.0817 83.7932 12.9398Z" fill="white"/>
<path d="M82.6572 8.17917C82.9644 8.564 83.4159 8.76417 83.8722 8.76417C84.212 8.76417 84.5518 8.654 84.8389 8.4259C85.5092 7.89055 85.6194 6.91452 85.0856 6.24572C84.6992 5.76159 84.2585 5.31934 83.7744 4.92986C83.1072 4.39607 82.1296 4.50159 81.5927 5.16883C81.0558 5.83762 81.1628 6.81521 81.8316 7.35055C82.1358 7.59728 82.4135 7.87503 82.6572 8.17917Z" fill="white"/>
<path d="M75.5627 6.20684H77.0788C77.9353 6.20684 78.6305 5.51322 78.6305 4.65512C78.6305 3.79701 77.9353 3.10339 77.0788 3.10339H75.5627C74.7062 3.10339 74.011 3.79701 74.011 4.65512C74.011 5.51322 74.7062 6.20684 75.5627 6.20684Z" fill="white"/>
<path d="M82.6495 81.8287C82.4028 82.1359 82.1235 82.4152 81.8209 82.6557C81.1505 83.1911 81.0404 84.1671 81.5742 84.8359C81.8814 85.2207 82.333 85.4209 82.7892 85.4209C83.129 85.4209 83.4688 85.3107 83.7559 85.0826C84.2385 84.6978 84.6807 84.2587 85.0702 83.773C85.6071 83.1042 85.5016 82.1266 84.8328 81.5912C84.164 81.0574 83.1864 81.1645 82.6495 81.8287Z" fill="white"/>
<path d="M77.0602 83.7931H75.5442C74.6876 83.7931 73.9924 84.4867 73.9924 85.3448C73.9924 86.2029 74.6876 86.8965 75.5442 86.8965H77.0602C77.9167 86.8965 78.6119 86.2029 78.6119 85.3448C78.6119 84.4867 77.9167 83.7931 77.0602 83.7931Z" fill="white"/>
<path d="M85.3449 74.0111C84.4884 74.0111 83.7932 74.7047 83.7932 75.5628V77.0804C83.7932 77.9385 84.4884 78.6321 85.3449 78.6321C86.2015 78.6321 86.8967 77.9385 86.8967 77.0804V75.5628C86.8967 74.7063 86.2015 74.0111 85.3449 74.0111Z" fill="white"/>
<path d="M14.4371 83.7931H12.9211C12.0646 83.7931 11.3694 84.4867 11.3694 85.3448C11.3694 86.2029 12.0646 86.8965 12.9211 86.8965H14.4371C15.2937 86.8965 15.9889 86.2029 15.9889 85.3448C15.9889 84.4867 15.2937 83.7931 14.4371 83.7931Z" fill="white"/>
<path d="M6.20696 77.0602V75.5426C6.20696 74.6845 5.51179 73.9908 4.65524 73.9908C3.79869 73.9908 3.10352 74.6845 3.10352 75.5426V77.0602C3.10352 77.9183 3.79869 78.6119 4.65524 78.6119C5.51179 78.6119 6.20696 77.9183 6.20696 77.0602Z" fill="white"/>
<path d="M7.34285 81.8208C6.8075 81.1489 5.83147 81.0419 5.16268 81.5741C4.49233 82.1095 4.38216 83.0855 4.91595 83.7543C5.30233 84.2384 5.74302 84.6807 6.22716 85.0701C6.51423 85.2983 6.85716 85.4115 7.19699 85.4115C7.65009 85.4115 8.10164 85.2129 8.40733 84.8312C8.94423 84.1624 8.83716 83.1848 8.16837 82.6495C7.86423 82.4027 7.58647 82.125 7.34285 81.8208Z" fill="white"/>
</svg>
