<svg width="90" height="90" viewBox="0 0 90 90" fill="none" xmlns="http://www.w3.org/2000/svg">
<g clip-path="url(#clip0)">
<path d="M65.93 24.9488C65.6032 24.6218 65.1497 24.4337 64.6874 24.4337C64.2251 24.4337 63.7716 24.6218 63.4446 24.9488C63.1176 25.2757 62.9296 25.7275 62.9296 26.1915C62.9296 26.6538 63.1175 27.1073 63.4446 27.4343C63.7717 27.7612 64.2251 27.9493 64.6874 27.9493C65.1497 27.9493 65.6032 27.7612 65.93 27.4343C66.2569 27.1073 66.4452 26.6538 66.4452 26.1915C66.4452 25.7292 66.2571 25.2757 65.93 24.9488Z" fill="white"/>
<path d="M26.3672 49.5704H12.3047C11.334 49.5704 10.5469 50.3574 10.5469 51.3282V65.3907C10.5469 66.3615 11.334 67.1485 12.3047 67.1485H26.3672C27.3378 67.1485 28.125 66.3615 28.125 65.3907V51.3282C28.125 50.3574 27.338 49.5704 26.3672 49.5704ZM24.6093 63.6329H14.0625V53.0861H24.6093V63.6329Z" fill="white"/>
<path d="M88.9148 36.8722C88.2579 36.5999 87.5017 36.7507 86.9991 37.2531L69.0874 55.1648C69.0872 55.1652 69.0869 55.1654 69.0865 55.1657C69.0862 55.1661 69.086 55.1662 69.0858 55.1666L48.2059 76.0466C48.2055 76.0469 48.2053 76.0471 48.205 76.0474C48.2046 76.0478 48.2044 76.048 48.2041 76.0483L37.2531 86.9993C36.7506 87.502 36.6001 88.2582 36.872 88.915C37.1441 89.5719 37.785 90.0001 38.4961 90.0001H88.2421C89.2127 90.0001 89.9999 89.2131 89.9999 88.2422V38.4962C89.9999 37.7854 89.5717 37.1443 88.9148 36.8722ZM86.4843 86.4844H42.7399L49.4479 79.7765L51.1259 81.4545C51.4692 81.7978 51.919 81.9693 52.3689 81.9693C52.8187 81.9693 53.2685 81.7978 53.6118 81.4545C54.2982 80.768 54.2982 79.655 53.6118 78.9684L51.9338 77.2904L56.4085 72.8157L58.0863 74.4935C58.4296 74.8368 58.8794 75.0084 59.3293 75.0084C59.7791 75.0084 60.2289 74.8367 60.5722 74.4935C61.2586 73.8071 61.2586 72.6941 60.5722 72.0076L58.8942 70.3296L63.3689 65.855L65.0469 67.533C65.3902 67.8763 65.84 68.0478 66.2898 68.0478C66.7397 68.0478 67.1895 67.8763 67.5328 67.533C68.2192 66.8465 68.2192 65.7335 67.5328 65.0469L65.8548 63.3689L70.3293 58.8944L72.0073 60.5724C72.3506 60.9157 72.8004 61.0873 73.2502 61.0873C73.7001 61.0873 74.1499 60.9157 74.4932 60.5724C75.1796 59.886 75.1796 58.7729 74.4932 58.0863L72.8152 56.4083L77.2899 51.9336L78.9677 53.6115C79.311 53.9548 79.7608 54.1263 80.2106 54.1263C80.6605 54.1263 81.1103 53.9546 81.4536 53.6115C82.14 52.925 82.14 51.812 81.4536 51.1256L79.7756 49.4476L86.4843 42.7399V86.4844Z" fill="white"/>
<path d="M80.1256 58.0909C79.4687 57.8186 78.7125 57.9692 78.21 58.4718L58.4717 78.2102C57.9691 78.7129 57.8185 79.469 58.0906 80.1259C58.3627 80.7828 59.0036 81.211 59.7146 81.211H79.4529C80.4236 81.211 81.2107 80.424 81.2107 79.4532V59.7149C81.2107 59.004 80.7825 58.363 80.1256 58.0909ZM77.6951 77.6954H63.9585L77.6951 63.9586V77.6954Z" fill="white"/>
<path d="M81.3972 26.2374C80.9133 25.7537 80.1929 25.5944 79.5497 25.8298L67.5472 30.2252C67.3073 30.3131 67.0895 30.4521 66.9086 30.6328L63.5338 34.0077L41.4969 11.9705C41.1671 11.6409 40.7201 11.4557 40.2539 11.4557C39.7878 11.4557 39.3406 11.6409 39.011 11.9705L12.4851 38.4964H6.00178L40.2539 4.24408L59.05 23.0402C59.7366 23.7266 60.8493 23.7266 61.5361 23.0402C62.2225 22.3537 62.2225 21.2407 61.5361 20.5541L41.497 0.515063C40.8104 -0.171362 39.6978 -0.171362 39.011 0.515063L0.514958 39.0111C0.0124007 39.5138 -0.138068 40.2699 0.133865 40.9267C0.405974 41.5838 1.04687 42.012 1.75791 42.012H3.51571V88.2424C3.51571 89.2132 4.30286 90.0002 5.27352 90.0002H33.2202C34.1909 90.0002 34.978 89.2132 34.978 88.2424C34.978 87.2716 34.1909 86.4846 33.2202 86.4846H7.03133V42.012H13.2132C13.6794 42.012 14.1264 41.8267 14.4561 41.4972L40.2539 15.6994L61.0478 36.4934L34.9805 62.5608V46.7581H47.2852C48.2558 46.7581 49.043 45.9711 49.043 45.0003C49.043 44.0295 48.2558 43.2425 47.2852 43.2425H33.2227C32.252 43.2425 31.4649 44.0295 31.4649 45.0003V65.3909C31.4649 65.596 31.5018 65.7918 31.5663 65.9748L29.9915 67.5496C27.2089 70.3323 27.2089 74.86 29.9915 77.6426C31.383 79.0341 33.2102 79.7299 35.038 79.7297C36.8654 79.7297 38.6933 79.0339 40.0845 77.6428L54.9084 62.8189C55.5949 62.1324 55.5949 61.0194 54.9084 60.333C54.222 59.6465 53.1093 59.6465 52.4224 60.333L41.1914 71.5639L36.0703 66.4429L68.1867 34.3265L73.3078 39.4476L61.0356 51.7199C60.3492 52.4063 60.3492 53.5193 61.0356 54.2058C61.7222 54.8922 62.8349 54.8922 63.5217 54.2058L77.0016 40.7258C77.1822 40.5451 77.3214 40.3272 77.4091 40.0874L81.8047 28.0849C82.04 27.4422 81.8811 26.7214 81.3972 26.2374ZM38.7056 74.0497L37.5986 75.1567C36.9146 75.8407 36.0055 76.2174 35.0382 76.2174C34.0708 76.2174 33.1615 75.8407 32.4777 75.1567C31.7936 74.4728 31.4171 73.5635 31.4171 72.5963C31.4171 71.6292 31.7934 70.7197 32.4776 70.0357L33.5846 68.9286L38.7056 74.0497ZM75.0737 36.2411L71.3932 32.5606L77.2006 30.4339L75.0737 36.2411Z" fill="white"/>
<path d="M59.1835 56.0568C58.8567 55.7298 58.4032 55.5417 57.9409 55.5417C57.4786 55.5417 57.0251 55.7298 56.6981 56.0568C56.3712 56.3855 56.1831 56.8373 56.1831 57.2996C56.1831 57.7636 56.371 58.2154 56.6981 58.5441C57.0251 58.871 57.4769 59.0574 57.9409 59.0574C58.4032 59.0574 58.8567 58.871 59.1835 58.5441C59.5105 58.2154 59.6987 57.7619 59.6987 57.2996C59.6987 56.8373 59.5106 56.3855 59.1835 56.0568Z" fill="white"/>
<path d="M40.2539 26.5431C36.5708 26.5431 33.5742 29.5396 33.5742 33.2228C33.5742 36.9059 36.5708 39.9024 40.2539 39.9024C43.937 39.9024 46.9336 36.9059 46.9336 33.2228C46.9336 29.5396 43.937 26.5431 40.2539 26.5431ZM40.2539 36.3868C38.5093 36.3868 37.0898 34.9676 37.0898 33.2228C37.0898 31.4781 38.5093 30.0587 40.2539 30.0587C41.9985 30.0587 43.4179 31.4781 43.4179 33.2228C43.4179 34.9674 41.9985 36.3868 40.2539 36.3868Z" fill="white"/>
</g>
<defs>
<clipPath id="clip0">
<rect width="90" height="90" fill="white"/>
</clipPath>
</defs>
</svg>
