<svg width="90" height="90" viewBox="0 0 90 90" fill="none" xmlns="http://www.w3.org/2000/svg">
<path d="M67.9064 38.8724V37.1544C67.9064 34.9468 66.1101 33.1499 63.9019 33.1499H46.9637L48.7696 28.7395C50.0317 26.0932 49.5647 22.9964 47.5742 20.839C46.7234 19.9168 45.5197 19.452 44.2707 19.5632C43.021 19.6751 41.9183 20.3453 41.2447 21.4034C41.2392 21.4117 41.2337 21.4206 41.2282 21.4288L33.283 34.5616C32.8065 34.1057 32.1631 33.8235 31.4558 33.82L25.7848 33.7788H25.7697C25.0591 33.7788 24.3909 34.0549 23.8863 34.5561C23.3788 35.0615 23.0994 35.7337 23.0994 36.4499V60.1247C23.0994 61.5976 24.2976 62.7958 25.7704 62.7958H31.4394C32.7151 62.7958 33.7849 61.8963 34.0479 60.6988L39.8954 62.6921C42.7285 63.6582 45.6831 64.1478 48.6769 64.1478H59.8747C62.083 64.1478 63.8792 62.3515 63.8792 60.1433V58.4253C63.8792 57.7709 63.7213 57.1529 63.4418 56.6064C64.7238 55.9383 65.6007 54.5959 65.6007 53.053V51.335C65.6007 50.6181 65.4111 49.9445 65.0802 49.3616C66.2131 48.6536 66.9691 47.395 66.9691 45.9627V44.2454C66.9691 43.4406 66.7302 42.6908 66.3203 42.0625C67.2836 41.3299 67.9064 40.1722 67.9064 38.8724ZM65.2697 38.8724C65.2697 39.6263 64.6558 40.2402 63.9019 40.2402H53.8089C53.0811 40.2402 52.4905 40.8307 52.4905 41.5585C52.4905 42.2864 53.0811 42.8769 53.8089 42.8769H62.9646C63.7186 42.8769 64.3324 43.4907 64.3324 44.2447V45.9627C64.3324 46.7166 63.7186 47.3305 62.9646 47.3305H53.8089C53.0811 47.3305 52.4905 47.9203 52.4905 48.6488C52.4905 49.3767 53.0811 49.9672 53.8089 49.9672H61.5961C62.3508 49.9672 62.9639 50.5804 62.9639 51.335V53.0523C62.9639 53.8069 62.3508 54.4208 61.5961 54.4208H53.8089C53.0811 54.4208 52.4905 55.0106 52.4905 55.7391C52.4905 56.467 53.0811 57.0575 53.8089 57.0575H59.8747C60.6287 57.0575 61.2425 57.6707 61.2425 58.4253V60.1426C61.2425 60.8972 60.6287 61.5104 59.8747 61.5104H48.6769C45.9736 61.5104 43.3046 61.0682 40.7462 60.1961L34.1104 57.9336V46.7049C34.1104 45.9771 33.5199 45.3866 32.7921 45.3866C32.0635 45.3866 31.4737 45.9771 31.4737 46.7049V60.1247C31.4737 60.144 31.4579 60.1591 31.4387 60.1591H25.7704C25.7512 60.1591 25.7354 60.144 25.7354 60.1247V36.4499C25.7354 36.4444 25.7354 36.4355 25.7457 36.4252C25.756 36.4149 25.7649 36.4156 25.7677 36.4156L31.4394 36.4561C31.4579 36.4561 31.4737 36.4719 31.4737 36.4911V41.356C31.4737 42.0838 32.0635 42.6743 32.7921 42.6743C33.5199 42.6743 34.1104 42.0838 34.1104 41.356V37.9708C34.3501 37.7696 34.5588 37.532 34.7298 37.2636C34.7353 37.2546 34.7408 37.2457 34.7456 37.2375L43.4749 22.809C43.7063 22.4526 44.0812 22.2274 44.5049 22.1896C44.9326 22.1519 45.3446 22.3105 45.6358 22.6263C46.8964 23.9928 47.1876 25.9566 46.378 27.6299C46.3663 27.6546 46.3547 27.6794 46.3444 27.7048L43.7798 33.9683C43.6129 34.3755 43.6603 34.8383 43.9047 35.2029C44.1499 35.5675 44.5598 35.7866 44.9992 35.7866H63.9019C64.6565 35.7866 65.2697 36.4004 65.2697 37.1544V38.8724Z" fill="white"/>
<path d="M45 90C42.1436 90 39.5638 88.659 37.9221 86.321C36.2466 83.9355 33.1121 83.0958 30.4692 84.3242C27.8785 85.5279 24.9733 85.3995 22.5 83.9713C20.026 82.543 18.4625 80.0917 18.2098 77.2462C17.9523 74.3424 15.6569 72.0477 12.7538 71.7902C9.90829 71.5375 7.45697 69.974 6.02875 67.5C4.60052 65.026 4.47212 62.1215 5.67581 59.5308C6.90422 56.8872 6.06445 53.7527 3.67905 52.0779C1.34102 50.4362 0 47.8564 0 45C0 42.1436 1.34102 39.5638 3.67905 37.9221C6.06445 36.2473 6.90491 33.1121 5.67581 30.4692C4.47212 27.8785 4.60052 24.974 6.02875 22.5C7.45697 20.026 9.90829 18.4625 12.7538 18.2098C15.6576 17.9523 17.9523 15.6569 18.2098 12.7538C18.4625 9.90761 20.026 7.45697 22.5 6.02875C24.974 4.60052 27.8785 4.47144 30.4692 5.67581C33.1128 6.90422 36.2473 6.06445 37.9221 3.67836C39.5638 1.34102 42.1436 0 45 0C47.8564 0 50.4362 1.34102 52.0779 3.67905H52.0773C53.7527 6.06445 56.8872 6.90422 59.5308 5.67581C62.1215 4.47212 65.026 4.60052 67.5 6.02875C69.974 7.45697 71.5375 9.90829 71.7902 12.7538C72.0477 15.6576 74.3424 17.9523 77.2462 18.2098C80.0917 18.4625 82.5423 20.026 83.9713 22.5C85.3995 24.974 85.5279 27.8785 84.3242 30.4692C83.0951 33.1128 83.9349 36.2473 86.321 37.9221C88.659 39.5638 90 42.1436 90 45C90 47.8564 88.659 50.4362 86.321 52.0779C83.9355 53.7527 83.0951 56.8872 84.3242 59.5308C85.5279 62.1215 85.3995 65.026 83.9713 67.5C82.543 69.974 80.0917 71.5375 77.2462 71.7902C74.3424 72.0477 72.0477 74.3431 71.7902 77.2462C71.5375 80.0917 69.974 82.543 67.5 83.9713C65.026 85.3995 62.1215 85.5279 59.5308 84.3242C56.8879 83.0958 53.7534 83.9355 52.0779 86.3216C50.4362 88.659 47.8564 90 45 90ZM33.0036 81.1244C35.7475 81.1244 38.4151 82.4345 40.0802 84.8062C41.2214 86.4315 43.0142 87.3633 45 87.3633C46.9858 87.3633 48.7786 86.4315 49.9198 84.8062C52.3293 81.3737 56.8391 80.1652 60.6425 81.9333C62.4429 82.7696 64.4623 82.6804 66.1816 81.6875C67.901 80.6946 68.9886 78.991 69.1637 77.0135C69.5345 72.8359 72.8359 69.5345 77.0135 69.1637C78.991 68.988 80.6946 67.901 81.6882 66.1816C82.6804 64.4623 82.7696 62.4429 81.9333 60.6425C80.1652 56.8391 81.3737 52.3299 84.8062 49.9198C86.4308 48.7786 87.3633 46.9858 87.3633 45C87.3633 43.0142 86.4308 41.2214 84.8062 40.0802C81.3737 37.6707 80.1652 33.1609 81.9326 29.3575C82.7696 27.5571 82.6804 25.5377 81.6875 23.8184C80.6946 22.099 78.991 21.0114 77.0128 20.8363C72.8359 20.4655 69.5345 17.1641 69.1637 12.9865C68.988 11.009 67.901 9.30542 66.1816 8.31253C64.4623 7.31964 62.4429 7.22969 60.6425 8.06671C56.8385 9.83482 52.3293 8.62564 49.9198 5.19379C49.9198 5.19379 49.9198 5.19379 49.9191 5.19379C48.7786 3.5685 46.9858 2.63672 45 2.63672C43.0142 2.63672 41.2214 3.5685 40.0802 5.19379C37.6707 8.62564 33.1609 9.83414 29.3575 8.06671C27.5571 7.23038 25.5377 7.31964 23.8184 8.31253C22.099 9.30542 21.0114 11.009 20.8363 12.9865C20.4655 17.1641 17.1641 20.4655 12.9865 20.8363C11.009 21.012 9.30542 22.099 8.31253 23.8184C7.31964 25.5377 7.23038 27.5571 8.06671 29.3575C9.83482 33.1609 8.62633 37.6707 5.19379 40.0802C3.5685 41.2214 2.63672 43.0142 2.63672 45C2.63672 46.9858 3.5685 48.7786 5.19379 49.9198C8.62633 52.3293 9.83482 56.8391 8.06671 60.6425C7.23038 62.4429 7.31964 64.4623 8.31253 66.1816C9.30542 67.901 11.009 68.9886 12.9865 69.1637C17.1641 69.5345 20.4655 72.8359 20.8363 77.0135C21.012 78.991 22.099 80.6946 23.8184 81.6875C25.5377 82.6804 27.5571 82.7696 29.3575 81.9333C30.5331 81.3867 31.7759 81.1244 33.0036 81.1244Z" fill="white"/>
<path d="M44.9999 79.8513C36.1745 79.8513 27.7548 76.5465 21.2914 70.5445C14.8624 64.5755 10.9444 56.4889 10.257 47.774C10.2 47.0482 10.7425 46.4138 11.4683 46.3568C12.1934 46.297 12.8285 46.8415 12.8862 47.5673C13.5207 55.6203 17.1427 63.0944 23.085 68.6123C29.0595 74.1597 36.8419 77.2146 44.9999 77.2146C53.1573 77.2146 60.9404 74.1597 66.9142 68.6123C72.8571 63.0944 76.4792 55.6203 77.1137 47.5673C77.1706 46.8415 77.8058 46.2977 78.5316 46.3568C79.2574 46.4138 79.7991 47.0482 79.7421 47.774C79.0555 56.4889 75.1368 64.5755 68.7084 70.5445C62.245 76.5465 53.8254 79.8513 44.9999 79.8513Z" fill="white"/>
<path d="M11.5734 43.6405C11.5391 43.6405 11.5034 43.6391 11.4683 43.6364C10.7425 43.5787 10.2008 42.9442 10.2578 42.2185C10.9465 33.5056 14.8659 25.4204 21.2935 19.4527C27.7569 13.4528 36.1759 10.1487 45 10.1487C53.8193 10.1487 62.2348 13.4501 68.6961 19.4438C75.1231 25.4053 79.0445 33.4836 79.7401 42.1903C79.7978 42.9161 79.256 43.5512 78.5303 43.6096C77.8031 43.6673 77.1693 43.1262 77.1116 42.4004C76.4689 34.3543 72.8441 26.8877 66.9033 21.3767C60.9308 15.8369 53.1518 12.7854 45 12.7854C36.8433 12.7854 29.0616 15.8396 23.0877 21.3849C17.1455 26.9015 13.5228 34.3742 12.8863 42.4258C12.832 43.1166 12.2545 43.6405 11.5734 43.6405Z" fill="white"/>
</svg>
