<svg width="101" height="86" viewBox="0 0 101 86" fill="none" xmlns="http://www.w3.org/2000/svg">
<path d="M79.4065 17.6071L80.309 13.5552L83.9285 14.3518L85.5042 13.3249L87.1311 6.0203L86.1388 4.4281L66.0207 0L64.4445 1.02685L62.8175 8.33141L63.8104 9.92374L67.4299 10.7204L66.5275 14.7724C50.5385 14.3923 35.384 25.5125 31.5729 42.6239C27.3254 61.6941 39.0255 80.4622 57.7345 84.5801C76.4405 88.6974 95.0191 76.5971 99.2672 57.5238C103.08 40.4067 94.0577 23.9704 79.4065 17.6071ZM66.5647 2.64978L84.5205 6.60194L83.3845 11.7021L80.8462 11.1434L81.5345 8.05287L79.1688 7.53216L78.4804 10.6226L75.5895 9.98634L76.2779 6.89585L73.9121 6.37514L73.2238 9.46562L70.3064 8.82348L70.9947 5.733L68.6289 5.21228L67.9406 8.30277L65.4288 7.7499L66.5647 2.64978ZM77.9433 13.0345L77.222 16.2726L69.0744 14.4793L69.7957 11.2411L77.9433 13.0345ZM58.2717 82.1683C40.9126 78.3475 29.9963 60.8416 33.938 43.1445C37.8796 25.4474 55.2093 14.1586 72.5684 17.9794C89.9275 21.8003 100.843 39.306 96.9015 57.0031C92.9599 74.7002 75.6308 85.9891 58.2717 82.1683Z" fill="white"/>
<path d="M71.2384 23.8899C56.9258 20.7186 42.6356 29.9425 39.3832 44.452C36.1309 58.9616 45.1292 73.3462 59.4418 76.5175C73.7543 79.6888 88.0441 70.4641 91.2964 55.9546C94.5488 41.4451 85.5509 27.0612 71.2384 23.8899ZM85.1235 35.9795L80.2179 39.1456L81.5138 41.2173L86.419 38.0505C89.2564 43.1334 90.3063 49.2689 88.9254 55.4293C87.5446 61.5896 83.9736 66.7012 79.2338 70.1053L76.1454 65.1673L74.0872 66.4958L77.1764 71.4333C72.4597 74.156 66.8475 75.306 61.1732 74.3459L62.4604 68.6034L60.0888 68.0779L58.8016 73.8204C53.2536 72.2939 48.6643 68.8836 45.5568 64.4273L50.4618 61.261L49.1664 59.1894L44.2607 62.3561C41.6095 57.6058 40.5194 51.9361 41.515 46.1862L47.179 47.4412L47.7179 45.0369L42.054 43.782C43.6083 38.1558 47.0167 33.4829 51.4458 30.3014L54.5349 35.2395L56.5924 33.9108L53.5038 28.9734C58.5506 26.0602 64.6228 24.9471 70.6996 26.2935C76.7764 27.64 81.7985 31.2114 85.1235 35.9795Z" fill="white"/>
<path d="M87.3378 53.8187L66.9144 49.2935L71.5554 28.5891L69.1837 28.0636L64.0039 51.1722L86.7988 56.223L87.3378 53.8187Z" fill="white"/>
<path d="M87.8062 32.0847C85.4379 29.0148 82.5196 26.5155 79.1321 24.6559L80.3119 22.5278C83.9961 24.5502 87.169 27.2678 89.7438 30.6053L87.8062 32.0847ZM77.7454 23.9443C77.0462 23.6099 76.3229 23.3005 75.5957 23.0247L76.4657 20.7535C77.2565 21.0536 78.0427 21.3904 78.8032 21.7538L77.7454 23.9443ZM74.1221 22.5115C73.3833 22.2772 72.6234 22.0699 71.8636 21.8958L72.4112 19.5273C73.2362 19.7163 74.0613 19.9412 74.8639 20.196L74.1221 22.5115Z" fill="white"/>
<path d="M13.881 57.5577C13.881 57.0279 14.3104 56.5985 14.8402 56.5985H27.7283C28.258 56.5985 28.6875 57.0279 28.6875 57.5577C28.6875 58.0874 28.258 58.5168 27.7283 58.5168H14.8402C14.3104 58.5168 13.881 58.0874 13.881 57.5577Z" fill="white"/>
<path d="M15.7318 29.7429C15.7318 29.2132 16.1612 28.7838 16.6909 28.7838H29.5791C30.1088 28.7838 30.5382 29.2132 30.5382 29.7429C30.5382 30.2726 30.1088 30.702 29.5791 30.702H16.6909C16.1612 30.702 15.7318 30.2726 15.7318 29.7429Z" fill="white"/>
<path d="M12.0302 51.8028C12.0302 51.2731 12.4597 50.8437 12.9894 50.8437H25.8775C26.4073 50.8437 26.8367 51.2731 26.8367 51.8028C26.8367 52.3326 26.4073 52.762 25.8775 52.762H12.9894C12.4597 52.762 12.0302 52.3326 12.0302 51.8028Z" fill="white"/>
<path d="M9.25406 35.4977C9.25406 34.968 9.68348 34.5386 10.2132 34.5386H28.6538C29.1835 34.5386 29.6129 34.968 29.6129 35.4977C29.6129 36.0274 29.1835 36.4568 28.6538 36.4568H10.2132C9.68348 36.4568 9.25406 36.0274 9.25406 35.4977Z" fill="white"/>
<path d="M5.55249 46.048C5.55249 45.5183 5.98191 45.0889 6.51162 45.0889H24.9522C25.4819 45.0889 25.9113 45.5183 25.9113 46.048C25.9113 46.5778 25.4819 47.0072 24.9522 47.0072H6.51162C5.98191 47.0072 5.55249 46.5778 5.55249 46.048Z" fill="white"/>
<path d="M0 40.2934C0 39.7637 0.429417 39.3343 0.959131 39.3343H26.8029C27.3326 39.3343 27.7621 39.7637 27.7621 40.2934C27.7621 40.8231 27.3326 41.2525 26.8029 41.2525H0.959133C0.42942 41.2525 0 40.8231 0 40.2934Z" fill="white"/>
</svg>
